HIERARCHY
ROOT Hips
{
  OFFSET 0 0 0
  CHANNELS 6 Xposition Yposition Zposition Zrotation Yrotation Xrotation
  JOINT LeftThigh
  {
    OFFSET 8.409438 0 -5.917753
    CHANNELS 3 Zrotation Yrotation Xrotation
    JOINT LeftLeg
    {
      OFFSET 0 0 -42.358652
      CHANNELS 3 Zrotation Yrotation Xrotation
      JOINT LeftFoot
      {
        OFFSET 0 0 -39.357303
        CHANNELS 3 Zrotation Yrotation Xrotation
      }
    }
  }
  JOINT RightThigh
  {
    OFFSET -8.409438 0 -5.917753
    CHANNELS 3 Zrotation Yrotation Xrotation
    JOINT RightLeg
    {
      OFFSET 0 0 -42.358652
      CHANNELS 3 Zrotation Yrotation Xrotation
      JOINT RightFoot
      {
        OFFSET 0 0 -39.357303
        CHANNELS 3 Zrotation Yrotation Xrotation
      }
    }
  }
  JOINT SpineLow
  {
    OFFSET 0 0 4.719101
    CHANNELS 3 Zrotation Yrotation Xrotation
    JOINT SpineMid
    {
      OFFSET 0 0 12.899191
      CHANNELS 3 Zrotation Yrotation Xrotation
      JOINT Chest
      {
        OFFSET 0 0 12.899191
        CHANNELS 3 Zrotation Yrotation Xrotation
        JOINT LeftShoulder
        {
          OFFSET 7.550562 1.41573 9.438202
          CHANNELS 3 Zrotation Yrotation Xrotation
          JOINT LeftArm
          {
            OFFSET 9.155056 0 4.247191
            CHANNELS 3 Zrotation Yrotation Xrotation
            JOINT LeftForearm
            {
              OFFSET 0 0 25.771955
              CHANNELS 3 Zrotation Yrotation Xrotation
              JOINT LeftHand
              {
                OFFSET 0 0 25.197169
                CHANNELS 3 Zrotation Yrotation Xrotation
              }
            }
          }
        }
        JOINT RightShoulder
        {
          OFFSET -7.550562 1.41573 9.438202
          CHANNELS 3 Zrotation Yrotation Xrotation
          JOINT RightArm
          {
            OFFSET -9.155056 0 4.247191
            CHANNELS 3 Zrotation Yrotation Xrotation
            JOINT RightForearm
            {
              OFFSET 0 0 -25.771955
              CHANNELS 3 Zrotation Yrotation Xrotation
              JOINT RightHand
              {
                OFFSET 0 0 -25.197169
                CHANNELS 3 Zrotation Yrotation Xrotation
              }
            }
          }
        }
        JOINT Neck
        {
          OFFSET 0 0 15.101124
          CHANNELS 3 Zrotation Yrotation Xrotation
          JOINT Head
          {
            OFFSET 0 0 11.325843
            CHANNELS 3 Zrotation Yrotation Xrotation
            End Site
            {
              OFFSET 0 0 14.157303
            }
          }
        }
      }
    }
  }
}
MOTION
Frames: 5
Frame Time: 0.0
0.0  101.685394  0.0  3.05647  7.241262  -117.599599  8.156342  -22.449528  -69.699372  -1.943909  7.731796  22.303597  -15.363317  -21.492478  -1.317095  -19.300841  7.376963  -6.941186  13.827342  2.359187  34.31968  12.625287  2.684645  8.311532  -5.473706  1.920978  4.535576  -14.580029  6.222287  11.922105  -14.580029  6.222287  11.922106  -12.456106  25.927262  0.837031  -138.921885  53.934447  -105.517659  -50.353501  -42.951327  79.586009  60.455537  -5.348056  -10.545025  23.667513  0.391761  29.528791  78.90193  51.072537  34.948321  -2.322256  23.084369  -113.120297  67.180083  1.238835  19.183194  5.003968  3.620229  4.129379  3.72744  2.749335  3.066572  
0.0  101.685394  0.0  2.090965  6.729319  -117.564181  5.591881  -29.566394  -66.089343  3.129357  3.624969  11.451232  -15.702989  -18.854246  -2.663227  -19.920133  6.106558  -6.440429  14.546644  2.040844  34.075871  12.244349  2.880848  8.487182  -5.570124  1.729371  4.297834  -14.895802  5.667725  11.303465  -14.895801  5.667725  11.303465  -10.261203  27.979302  2.569456  -139.368135  53.455349  -104.770197  -50.917965  -43.632063  80.289696  60.437357  -5.011438  -11.110394  24.434421  0.878996  31.251772  77.787281  49.641684  33.740731  -1.437394  23.096555  -112.310709  66.861837  2.190729  19.653759  5.690558  4.199141  5.889912  4.225941  3.204848  4.376747  
0.0  101.685394  0.0  1.692716  5.932503  -118.056068  4.031554  -40.815316  -64.048192  13.42529  3.952531  4.521127  -12.315423  -16.41645  -2.400578  -21.430208  5.847  -5.578583  15.743254  1.585161  33.719663  12.570972  3.026182  8.736667  -5.567689  1.645426  4.305041  -14.900858  5.441479  11.340733  -14.900856  5.441479  11.340733  -8.768909  29.103619  3.1975  -140.268761  52.787204  -104.596325  -51.739571  -44.061334  81.264492  60.41759  -4.514696  -11.802412  24.742146  1.204703  31.472088  77.315109  47.977598  33.22531  -0.859196  23.266276  -111.398796  66.43454  3.09368  20.324592  6.327758  4.641576  7.047431  4.690336  3.55511  5.2352  
0.0  101.685394  0.0  1.865134  5.727489  -119.167378  -1.296382  -42.378476  -62.800022  23.196414  -0.521673  2.778785  -15.320683  -15.262623  -0.621795  -23.637378  7.182851  -4.761978  16.771808  0.98549  33.631248  13.542494  2.856375  8.961667  -5.547796  1.744818  4.543779  -14.808946  5.759855  11.97258  -14.808947  5.759855  11.97258  -8.293252  29.065255  2.897626  -141.383814  51.876728  -104.912124  -52.856436  -44.037762  82.51127  60.061648  -4.024782  -12.330465  24.214082  1.309357  30.468021  77.370521  46.362954  33.056165  -0.675476  23.724577  -110.474263  65.920437  3.741956  21.132095  6.711915  4.69901  7.593683  4.973524  3.608771  5.641172  
0.0  101.685394  0.0  2.39782  6.340521  -120.069257  -7.073301  -45.705054  -62.080588  34.927437  -4.409096  5.090447  -18.262485  -14.891098  0.459845  -25.694899  9.382644  -4.885752  17.098687  0.450452  34.111334  14.888974  2.343692  9.044899  -5.560025  1.96253  4.779392  -14.783551  6.40315  12.569462  -14.783549  6.40315  12.569461  -8.402569  28.219036  2.428449  -142.638615  50.75249  -105.66393  -54.206696  -43.505327  84.09416  59.494817  -3.5212  -12.516171  22.773524  1.267573  29.09552  77.873584  44.79977  32.928918  -0.779148  24.44873  -109.659297  65.52859  4.105638  21.764659  6.746403  4.299091  7.793736  5.003481  3.31142  5.795867  
